<?xml version="1.0" standalone="no"?>
<!DOCTYPE svg PUBLIC "-//W3C//DTD SVG 20010904//EN"
 "http://www.w3.org/TR/2001/REC-SVG-20010904/DTD/svg10.dtd">
<svg version="1.0" xmlns="http://www.w3.org/2000/svg"
 width="446.000000pt" height="559.000000pt" viewBox="0 0 446.000000 559.000000"
 preserveAspectRatio="xMidYMid meet">

<g transform="translate(0.000000,559.000000) scale(0.100000,-0.100000)"
fill="#000000" stroke="none">
<path d="M2105 4364 c-67 -9 -182 -38 -217 -55 -20 -10 -56 -21 -80 -25 -50
-7 -98 -23 -98 -34 0 -4 -16 -10 -35 -13 -20 -3 -58 -22 -85 -42 -26 -19 -54
-34 -62 -33 -7 2 -12 -5 -12 -15 1 -10 -11 -23 -33 -34 -19 -9 -39 -26 -43
-39 -5 -12 -14 -25 -20 -29 -5 -3 -7 -11 -4 -17 4 -6 1 -14 -5 -18 -9 -5 -9
-11 3 -22 11 -12 13 -23 6 -44 -20 -68 -27 -113 -16 -111 13 2 10 -46 -6 -85
-6 -16 -8 -37 -5 -48 3 -11 1 -23 -5 -26 -13 -9 0 -187 17 -234 55 -147 60
-155 81 -152 18 3 22 -3 26 -32 2 -19 1 -41 -2 -50 -3 -8 -4 -58 -2 -110 4
-101 17 -124 39 -68 l11 27 -4 -32 c-2 -19 0 -33 6 -33 5 0 10 8 10 19 0 10 7
24 15 31 9 7 14 19 11 26 -6 16 39 45 59 38 8 -4 21 -1 29 5 7 6 16 8 19 4 4
-3 7 -1 7 5 0 7 5 12 11 12 5 0 8 -4 5 -8 -3 -5 3 -8 12 -7 30 3 62 16 62 26
0 5 8 9 17 9 15 0 15 1 -2 13 -17 13 -16 15 15 25 18 7 36 12 40 12 12 0 32
-58 25 -70 -4 -7 4 -5 18 5 14 9 28 22 30 28 2 7 2 1 0 -12 -2 -14 -12 -30
-20 -36 -9 -7 -14 -19 -10 -28 4 -10 -1 -17 -15 -20 -24 -7 -15 -29 10 -25 28
5 14 -41 -24 -77 -19 -18 -34 -42 -34 -53 0 -11 -4 -24 -10 -27 -12 -7 -13
-75 -2 -91 4 -6 19 -14 35 -18 15 -3 27 -11 27 -16 0 -6 8 -10 18 -11 10 0 12
-3 5 -6 -7 -2 -13 -11 -13 -19 0 -8 -7 -14 -15 -14 -8 0 -24 -15 -35 -32 -11
-18 -20 -27 -20 -20 0 22 -20 13 -31 -14 -9 -26 -10 -26 -29 -9 -19 18 -20 17
-20 -5 0 -19 -2 -20 -15 -10 -13 11 -15 8 -15 -14 0 -27 -15 -35 -23 -13 -8
18 -28 -13 -23 -35 2 -10 0 -21 -5 -24 -14 -8 -11 -19 11 -44 22 -25 26 -35
10 -25 -6 3 -10 -4 -10 -17 -1 -18 -5 -13 -21 21 -13 26 -18 53 -15 67 6 24
-7 33 -19 14 -3 -5 -11 -10 -16 -10 -6 0 -7 5 -4 10 3 6 0 10 -7 11 -7 0 -3 4
10 9 34 14 27 31 -10 23 -26 -5 -30 -4 -25 10 4 11 1 17 -8 17 -14 0 -19 10
-30 66 -5 24 -2 33 11 38 11 4 13 10 7 19 -6 6 -16 34 -22 62 -7 27 -17 52
-22 56 -17 10 2 38 35 49 30 10 74 48 58 52 -4 0 -11 2 -17 3 -5 1 -17 5 -25
8 -8 3 -26 7 -40 10 -14 2 -32 6 -40 8 -12 3 -14 -6 -12 -51 2 -62 18 -188 33
-270 14 -73 94 -240 152 -316 26 -34 47 -65 47 -69 0 -13 -32 -35 -88 -61 -30
-13 -78 -40 -107 -58 -54 -35 -183 -85 -290 -113 -87 -23 -97 -29 -174 -107
-137 -139 -211 -242 -211 -291 0 -9 -11 -37 -24 -63 -13 -26 -31 -70 -39 -98
-8 -28 -25 -70 -37 -94 -36 -70 -69 -188 -76 -269 -5 -55 -15 -92 -36 -136
-57 -114 -105 -230 -153 -370 -26 -77 -70 -186 -96 -242 -27 -56 -49 -110 -49
-120 0 -10 -6 -38 -14 -63 -34 -104 -45 -156 -40 -178 l6 -22 313 0 313 1 6
22 c3 12 6 36 6 54 0 53 49 175 82 205 16 15 34 28 41 31 27 9 16 223 -15 263
-4 6 -6 26 -3 45 4 24 3 28 -3 15 -12 -28 -19 -11 -38 95 -15 86 -15 97 -1
132 12 27 27 42 52 53 40 16 65 8 96 -30 20 -24 57 -118 64 -162 2 -16 7 -49
11 -74 4 -25 11 -53 16 -63 5 -10 12 -31 14 -45 4 -25 72 -180 84 -192 37 -36
80 -226 71 -318 l-3 -32 141 0 c137 0 141 1 129 19 -9 15 -9 25 -1 43 l12 23
0 -27 c1 -22 6 -28 24 -28 21 -1 22 -1 3 -15 -18 -13 48 -15 562 -15 l581 0
41 60 c22 32 46 63 53 67 8 4 22 22 33 38 34 55 71 82 122 91 21 4 25 12 17
31 -15 34 -13 41 16 69 l30 29 -16 -37 c-19 -47 -19 -54 0 -38 8 7 15 18 15
26 0 7 8 29 17 49 49 104 161 -35 122 -152 -14 -43 -85 -154 -127 -200 l-30
-33 665 0 665 0 -6 218 c-3 119 -9 246 -14 282 -5 36 -16 126 -26 200 -16 129
-28 182 -96 421 -16 58 -36 137 -45 177 -19 92 -45 147 -102 213 -25 30 -57
71 -71 91 -31 48 -171 153 -327 247 -79 48 -101 66 -161 135 -25 28 -39 36
-66 36 -53 0 -205 88 -226 131 -15 31 -21 34 -62 34 -34 1 -68 13 -138 49 -51
27 -99 57 -106 68 -7 10 -33 40 -58 66 -24 26 -57 67 -74 92 -27 42 -108 109
-118 99 -3 -3 0 -38 5 -79 6 -41 9 -115 7 -165 -5 -96 -29 -169 -118 -355 -98
-205 -333 -512 -378 -495 -8 3 -16 -3 -19 -15 -3 -11 -9 -20 -13 -20 -5 0 -39
-21 -77 -46 l-68 -45 -15 22 c-8 13 -33 45 -55 72 -22 27 -44 58 -50 68 -5 11
-15 19 -21 19 -16 0 -61 89 -67 132 -3 25 -1 36 6 31 6 -4 8 4 5 20 -3 16 -1
24 5 20 5 -3 6 3 2 16 -10 32 22 27 39 -7 18 -34 46 -60 46 -43 0 21 -21 105
-31 123 -14 28 -11 52 11 65 16 11 21 10 29 -6 6 -10 26 -26 45 -35 40 -19 81
-9 81 20 0 13 6 18 20 17 11 -1 27 0 35 4 8 3 20 7 25 7 6 1 11 11 13 24 2 12
10 22 18 22 14 0 47 19 89 50 37 28 175 173 175 184 0 6 18 31 40 56 22 25 40
48 40 53 0 4 14 26 30 49 17 22 30 47 30 55 0 7 4 13 9 13 5 0 14 12 20 28 6
15 22 45 36 67 27 45 58 151 78 270 9 55 18 80 28 81 41 3 43 5 19 17 -18 9
-26 22 -28 46 -2 19 2 37 8 41 6 4 12 13 13 21 2 8 6 20 10 27 5 6 4 12 -1 12
-6 0 -13 -8 -16 -17 -11 -29 -22 1 -24 65 l-2 57 23 -26 23 -26 1 33 c1 33
-18 61 -35 50 -5 -3 -6 10 -2 32 10 51 20 73 31 66 5 -3 2 -21 -6 -41 -8 -20
-13 -38 -10 -41 3 -3 5 0 5 6 0 7 9 12 20 12 11 0 20 5 20 11 0 5 -4 7 -10 4
-15 -9 -12 5 14 57 20 42 21 48 7 53 -9 3 -27 14 -41 25 l-25 20 24 -3 c27 -2
24 -9 56 137 29 140 11 346 -30 346 -8 0 -14 3 -13 8 1 4 -2 41 -6 84 -7 69
-12 82 -53 137 -25 34 -48 61 -52 61 -4 0 -16 7 -26 15 -48 36 -121 86 -135
91 -8 3 -22 10 -30 15 -8 5 -37 21 -65 35 -27 14 -58 33 -68 42 -9 8 -20 12
-23 9 -4 -3 -25 3 -48 15 -22 12 -62 22 -88 24 -27 1 -65 4 -85 7 -21 2 -51 3
-68 1z m-215 -454 c-8 -5 -4 -8 13 -7 14 1 23 5 20 10 -2 4 8 12 22 17 34 13
35 13 29 -4 -3 -9 6 -15 31 -19 38 -6 88 10 79 24 -9 16 33 10 46 -6 11 -14
14 -14 24 0 9 12 22 14 61 8 27 -3 44 -8 36 -11 -9 -3 -2 -10 17 -18 45 -19
184 -57 203 -56 9 0 34 -16 55 -37 28 -29 38 -48 41 -79 2 -22 15 -62 28 -89
14 -26 25 -53 25 -59 0 -6 22 -30 49 -54 76 -63 122 -180 72 -180 -10 0 -21
-7 -25 -15 -4 -11 1 -15 19 -15 19 0 25 -5 24 -22 0 -13 5 -45 11 -73 13 -57
5 -374 -10 -389 -4 -4 -6 -15 -3 -23 3 -8 0 -18 -6 -22 -15 -10 -61 -178 -54
-200 3 -12 1 -11 -7 2 -6 10 -9 25 -6 33 7 20 -23 31 -35 13 -11 -18 -11 -32
0 -25 18 11 32 -22 26 -61 -11 -63 -16 -71 -26 -44 -7 18 -6 27 3 33 10 6 10
10 -2 17 -10 7 -17 6 -22 -2 -4 -7 -8 -7 -8 -2 -1 18 -20 -19 -20 -38 0 -10
-6 -25 -14 -32 -10 -11 -12 -24 -6 -51 7 -32 5 -42 -18 -73 -15 -20 -30 -38
-33 -41 -3 -3 -12 -16 -18 -28 -7 -13 -15 -22 -17 -19 -2 2 -30 -20 -62 -49
-77 -73 -125 -94 -231 -102 -122 -9 -142 -8 -178 10 -23 11 -33 13 -36 4 -3
-6 -10 1 -16 17 -6 15 -16 27 -23 27 -10 0 -10 -2 0 -9 10 -6 8 -10 -10 -14
-12 -4 -24 -2 -26 3 -2 6 -9 10 -16 10 -7 0 -19 11 -26 25 -7 14 -17 25 -22
25 -4 0 -8 9 -8 20 0 11 5 20 11 20 5 0 7 4 4 10 -3 5 -1 19 5 30 8 16 8 20
-3 20 -8 0 -22 9 -32 20 -10 11 -24 20 -32 20 -7 0 -13 6 -13 14 0 8 -6 17
-12 19 -9 4 -10 8 -2 14 6 4 16 17 22 28 11 20 11 19 12 -2 0 -13 14 -34 35
-50 19 -15 35 -34 35 -40 0 -15 17 -17 22 -3 2 6 18 6 42 0 22 -5 69 -10 105
-11 52 -1 73 3 101 20 19 11 38 21 41 21 3 0 17 18 31 39 20 31 23 41 12 45
-16 6 -28 -9 -19 -24 3 -5 1 -10 -4 -10 -6 0 -11 6 -11 13 0 9 -2 9 -8 -1 -5
-6 -19 -12 -33 -12 -13 0 -31 0 -39 -1 -62 -3 -162 6 -170 16 -16 19 0 45 27
45 13 0 33 5 44 11 15 8 24 7 35 -2 12 -9 17 -10 23 -1 3 6 29 13 56 16 28 3
58 8 68 11 11 5 17 2 17 -6 0 -11 3 -11 10 1 9 13 11 13 20 0 5 -8 10 -10 10
-4 0 14 92 27 100 14 3 -5 18 -6 34 -2 l28 8 -28 28 c-23 23 -35 27 -62 23
-30 -5 -84 8 -137 33 -33 15 -111 18 -136 4 -19 -10 -29 -10 -49 1 -14 7 -35
11 -48 9 -36 -6 -110 -42 -115 -56 -4 -10 -7 -10 -18 0 -11 10 -11 14 -1 21 7
4 12 14 10 22 -2 8 3 13 10 11 8 -1 11 2 8 7 -4 5 3 12 14 16 11 3 20 11 20
16 0 5 6 9 13 9 8 0 19 10 25 23 11 20 11 19 6 -10 -7 -39 3 -43 16 -8 5 14
16 25 25 25 8 0 14 3 14 8 -3 20 2 32 16 32 8 0 15 6 15 14 0 10 10 14 35 12
23 -2 35 1 35 9 0 7 15 20 34 29 39 18 60 21 51 6 -12 -20 61 -10 83 10 25 23
32 61 8 41 -10 -9 -16 -8 -26 4 -14 17 -93 17 -120 0 -7 -4 -44 -9 -83 -10
-64 -3 -72 -1 -93 23 -31 33 -30 40 10 83 33 34 34 40 31 94 -1 33 3 75 11 97
18 51 17 50 4 58 -20 12 18 40 55 40 24 0 39 -7 53 -25 19 -24 50 -36 37 -15
-3 6 0 10 8 10 10 0 13 -7 10 -20 -4 -14 0 -20 10 -20 30 0 28 21 -3 50 l-32
30 41 -2 c37 -1 41 -3 35 -22 -6 -17 -4 -19 7 -10 8 7 22 8 34 3 20 -7 20 -8
0 -8 -18 -1 -18 -2 -4 -17 16 -15 63 -31 124 -41 l30 -4 -24 19 c-18 14 -21
21 -11 27 9 5 11 4 6 -3 -5 -8 3 -12 23 -12 20 0 31 5 31 14 0 9 7 12 18 10 9
-3 42 1 72 9 42 11 55 19 55 33 0 24 -81 53 -145 52 -51 -1 -90 9 -90 23 0 8
23 14 43 10 5 -1 11 8 14 19 4 16 14 20 47 21 67 2 96 -2 131 -17 44 -18 55
-18 55 1 0 8 6 15 13 15 26 0 40 -19 43 -60 4 -53 14 -65 14 -17 0 50 -19 86
-49 94 -14 3 -38 16 -53 29 -15 12 -44 28 -65 34 -21 7 -48 18 -60 26 -14 9
-30 11 -50 5 -16 -5 -59 -12 -94 -16 -35 -4 -69 -12 -76 -17 -6 -5 -17 -8 -25
-7 -7 1 -26 -3 -41 -9 -15 -7 -31 -11 -35 -11 -31 5 -52 -3 -52 -20 0 -10 -7
-22 -16 -25 -14 -5 -14 -7 0 -22 19 -19 21 -31 3 -16 -10 8 -13 5 -15 -16 -3
-38 -12 -43 -62 -33 -43 7 -44 8 -17 16 15 4 27 11 27 16 0 6 -9 5 -20 -1 -16
-9 -22 -8 -26 5 -3 8 -9 13 -13 10 -8 -5 -57 38 -63 55 -5 17 -251 24 -305 9
-47 -13 -80 -43 -93 -85 -7 -22 -8 -17 -3 21 6 55 27 96 36 73 4 -9 6 -9 6 -1
1 6 -3 14 -8 17 -5 4 -3 18 5 35 8 15 16 50 19 76 11 113 27 164 61 200 18 19
27 35 21 35 -22 1 54 61 84 67 17 3 33 12 36 19 3 8 11 14 18 14 7 0 18 7 25
15 7 9 15 13 18 10 3 -3 15 1 27 9 27 18 59 24 64 13 2 -5 -2 -13 -9 -17z
m160 10 c0 -5 -5 -10 -11 -10 -5 0 -7 5 -4 10 3 6 8 10 11 10 2 0 4 -4 4 -10z
m380 -520 c-8 -5 -25 -10 -37 -10 -12 0 -23 -5 -25 -12 -3 -9 -6 -9 -12 0 -8
14 25 30 64 31 20 1 22 -1 10 -9z m-183 -72 c-3 -8 -6 -5 -6 6 -1 11 2 17 5
13 3 -3 4 -12 1 -19z m-517 -46 c0 -9 -6 -12 -16 -8 -8 3 -13 2 -10 -3 3 -5
-13 -12 -37 -16 -48 -9 -71 -7 -75 6 -2 6 -10 5 -18 -2 -18 -15 -27 -7 -18 15
3 9 16 16 28 16 12 0 26 4 32 9 26 26 114 12 114 -17z m749 7 c48 -17 32 -20
-19 -4 -25 7 -38 14 -29 14 9 1 30 -4 48 -10z m-441 -16 c-10 -2 -26 -2 -35 0
-10 3 -2 5 17 5 19 0 27 -2 18 -5z m292 -37 c0 -5 -7 -3 -15 4 -8 7 -12 17 -9
22 7 10 24 -9 24 -26z m-550 -66 c-8 -5 -19 -10 -25 -10 -5 0 -3 5 5 10 8 5
20 10 25 10 6 0 3 -5 -5 -10z m90 -296 c0 -8 -4 -12 -10 -9 -5 3 -10 10 -10
16 0 5 5 9 10 9 6 0 10 -7 10 -16z m77 -146 c-3 -8 -6 -5 -6 6 -1 11 2 17 5
13 3 -3 4 -12 1 -19z m-171 -165 c-5 -12 -10 -13 -17 -6 -8 8 -7 18 2 34 12
21 14 22 17 6 2 -10 1 -25 -2 -34z m-56 -28 c11 -13 10 -14 -4 -9 -9 3 -16 10
-16 15 0 13 6 11 20 -6z m100 -49 c0 -3 -4 -8 -10 -11 -5 -3 -10 -1 -10 4 0 6
5 11 10 11 6 0 10 -2 10 -4z m800 -27 c0 -16 -4 -28 -9 -25 -5 4 -12 0 -14 -6
-3 -8 -6 -5 -6 5 -1 18 16 57 24 57 3 0 5 -14 5 -31z m-803 -481 c-3 -8 -6 -5
-6 6 -1 11 2 17 5 13 3 -3 4 -12 1 -19z m-2 -26 c-5 -4 -11 -16 -12 -27 -6
-51 -17 -75 -34 -75 -13 0 -11 13 11 64 10 25 25 46 32 46 8 0 9 -3 3 -8z
m661 -409 c-4 -16 -8 -36 -9 -45 -1 -9 -4 -15 -7 -13 -4 2 -13 -11 -20 -30 -8
-19 -17 -35 -22 -35 -4 0 -8 -9 -8 -19 0 -11 -6 -26 -14 -34 -8 -8 -12 -24 -9
-35 3 -14 -3 -29 -21 -47 -21 -21 -29 -24 -46 -15 -11 6 -20 21 -20 34 0 24
21 50 33 41 4 -3 5 -2 2 2 -3 3 -1 11 4 17 8 10 27 43 59 102 6 11 19 38 29
61 12 28 24 43 37 43 15 0 17 -5 12 -27z m-740 -18 c8 -20 -15 -75 -31 -75
-19 0 -25 26 -14 60 12 32 36 40 45 15z m759 -55 c-3 -5 -11 -10 -16 -10 -6 0
-7 5 -4 10 3 6 11 10 16 10 6 0 7 -4 4 -10z m-780 -52 c-7 -31 -12 -65 -20
-132 -6 -47 -11 -56 -27 -56 -16 0 -19 4 -14 23 6 20 15 72 18 105 1 6 6 12
11 12 5 0 6 7 3 16 -9 23 2 54 20 54 10 0 13 -7 9 -22z m300 -272 c32 -49 -16
-112 -66 -86 -42 23 -16 110 32 110 10 0 26 -11 34 -24z m131 -200 c3 -8 -11
-40 -30 -70 -20 -31 -36 -61 -36 -67 0 -6 -5 -7 -12 -3 -8 5 -9 2 -5 -10 8
-20 -37 -71 -53 -61 -6 3 -10 1 -10 -5 0 -7 7 -10 15 -6 20 7 19 -8 -1 -25
-13 -10 -17 -10 -26 2 -8 12 -9 12 -5 -1 2 -8 14 -15 26 -14 19 1 20 -1 7 -20
-7 -12 -23 -22 -34 -24 -45 -7 -37 93 8 105 11 3 20 12 20 19 0 23 44 84 60
84 13 0 13 1 0 10 -9 6 -11 13 -5 18 6 4 18 24 27 45 18 37 44 49 54 23z
m-498 -119 c2 -21 -2 -45 -8 -52 -6 -8 -13 -39 -14 -70 -2 -36 -8 -60 -17 -66
-10 -6 -10 -9 -2 -9 16 0 6 -111 -11 -122 -17 -12 -31 -3 -30 18 4 62 18 140
26 145 7 4 6 9 -1 14 -13 7 -11 95 2 95 4 0 7 8 7 18 0 13 -2 14 -9 4 -6 -10
-10 -7 -13 11 -6 31 18 59 47 55 15 -2 21 -12 23 -41z m211 -258 c-5 -10 -14
-19 -19 -19 -6 0 -10 -11 -10 -25 0 -29 -16 -33 -25 -6 -7 23 9 67 27 73 25 9
38 -2 27 -23z m-50 -262 c8 -10 7 -17 -1 -25 -7 -7 -13 -17 -14 -24 -5 -27
-41 -98 -47 -91 -4 3 -7 -3 -7 -15 0 -16 -4 -20 -17 -15 -16 6 -16 5 -4 -10
17 -21 7 -35 -13 -18 -12 10 -10 18 8 56 14 31 26 43 36 39 12 -4 12 -2 3 7
-9 9 -8 17 3 35 9 13 15 24 15 26 0 2 2 13 5 26 7 25 17 28 33 9z m-868 -100
c-10 -9 -11 -8 -5 6 3 10 9 15 12 12 3 -3 0 -11 -7 -18z m-20 -58 c-5 -13 -10
-19 -10 -12 -1 15 10 45 15 40 3 -2 0 -15 -5 -28z m673 -55 c9 -8 16 -25 16
-36 0 -20 -1 -20 -20 -3 -10 9 -26 15 -35 12 -10 -5 -15 0 -15 13 0 10 8 21
18 23 9 3 18 5 19 6 1 0 9 -6 17 -15z m114 -26 c-6 -18 -28 -21 -28 -4 0 9 7
16 16 16 9 0 14 -5 12 -12z m-128 -33 c0 -8 -4 -15 -10 -15 -5 0 -10 7 -10 15
0 8 5 15 10 15 6 0 10 -7 10 -15z"/>
<path d="M2080 3228 c0 -22 46 -91 65 -98 13 -5 25 -15 28 -22 2 -7 7 -10 11
-6 12 10 -25 60 -40 54 -8 -3 -14 0 -14 7 -1 13 -50 77 -50 65z"/>
<path d="M2228 3049 c14 -19 52 -32 52 -18 0 5 -8 9 -18 9 -10 0 -24 6 -32 13
-12 10 -12 9 -2 -4z"/>
<path d="M2049 2750 c-1 -8 -3 -19 -4 -25 -2 -5 -3 -15 -4 -22 0 -6 -10 -9
-21 -6 -24 6 -28 -18 -5 -37 9 -7 15 -8 15 -2 0 5 11 13 24 16 23 6 44 46 25
46 -5 0 -14 10 -19 23 -6 14 -9 17 -11 7z"/>
<path d="M2575 2510 c-3 -5 -1 -10 4 -10 6 0 11 5 11 10 0 6 -2 10 -4 10 -3 0
-8 -4 -11 -10z"/>
<path d="M2550 2400 c0 -5 0 -12 0 -15 0 -12 14 -4 16 10 1 8 -2 15 -7 15 -5
0 -9 -4 -9 -10z"/>
<path d="M2330 1321 c0 -6 4 -13 10 -16 6 -3 7 1 4 9 -7 18 -14 21 -14 7z"/>
<path d="M2365 1319 c-4 -6 -5 -12 -2 -15 2 -3 7 2 10 11 7 17 1 20 -8 4z"/>
<path d="M1960 1110 c0 -9 7 -17 15 -17 8 0 15 8 15 17 0 9 -7 17 -15 17 -8 0
-15 -8 -15 -17z"/>
<path d="M1619 783 c-13 -16 -12 -17 4 -4 16 13 21 21 13 21 -2 0 -10 -8 -17
-17z"/>
<path d="M2911 3236 c-8 -9 -10 -32 -5 -66 l7 -52 13 30 c28 68 18 128 -15 88z"/>
<path d="M1373 3195 c0 -16 24 -18 67 -6 l25 7 -29 8 c-20 5 -32 3 -37 -6 -7
-10 -9 -10 -9 0 0 6 -4 12 -8 12 -5 0 -9 -7 -9 -15z"/>
<path d="M1638 2943 c6 -2 18 -2 25 0 6 3 1 5 -13 5 -14 0 -19 -2 -12 -5z"/>
</g>
</svg>
