<?xml version="1.0" standalone="no"?>
<!DOCTYPE svg PUBLIC "-//W3C//DTD SVG 20010904//EN"
 "http://www.w3.org/TR/2001/REC-SVG-20010904/DTD/svg10.dtd">
<svg version="1.0" xmlns="http://www.w3.org/2000/svg"
 width="433.000000pt" height="577.000000pt" viewBox="0 0 433.000000 577.000000"
 preserveAspectRatio="xMidYMid meet">

<g transform="translate(0.000000,577.000000) scale(0.100000,-0.100000)"
fill="#000000" stroke="none">
<path d="M1940 3790 c-30 -3 -66 -13 -80 -22 -14 -9 -52 -24 -85 -33 -87 -24
-136 -56 -164 -107 -13 -23 -31 -51 -39 -60 -17 -20 -40 -133 -48 -233 -10
-135 -26 -248 -40 -280 -11 -26 -11 -35 -1 -38 8 -4 8 -8 2 -14 -14 -11 -18
-28 -23 -105 -5 -74 8 -125 45 -180 l25 -37 -31 -125 c-44 -178 -105 -286
-216 -377 -45 -38 -66 -49 -85 -45 -37 6 -122 -30 -171 -73 -24 -21 -62 -47
-84 -59 -47 -24 -92 -67 -155 -147 -79 -100 -316 -322 -414 -386 -147 -98
-215 -175 -330 -375 l-46 -81 0 -507 0 -506 312 2 311 3 10 30 c25 80 69 185
77 185 11 0 96 -156 105 -192 l7 -28 1009 0 c555 0 1009 2 1009 4 0 2 -16 23
-35 46 -21 26 -35 53 -35 69 0 46 -38 180 -72 253 -17 38 -29 71 -26 74 3 3
31 -21 61 -53 123 -129 169 -203 203 -329 13 -50 21 -64 36 -64 17 0 19 5 13
48 -15 106 -81 249 -145 312 -28 28 -47 50 -43 50 4 0 3 4 -2 8 -21 15 -87
116 -100 153 -15 42 -18 30 45 174 10 22 19 47 22 55 2 8 12 -8 21 -35 10 -27
26 -58 36 -69 10 -12 29 -49 41 -83 13 -35 26 -63 30 -63 4 0 18 -24 30 -52
12 -29 42 -93 65 -143 23 -49 48 -110 56 -135 7 -25 19 -56 26 -70 7 -14 13
-33 13 -43 0 -23 29 -79 48 -93 16 -12 92 -18 92 -8 0 11 -42 75 -100 155 -75
102 -125 204 -223 454 -96 246 -118 325 -127 465 -13 183 -38 290 -144 598
-34 98 -56 179 -56 205 0 38 -9 74 -53 220 -10 35 -9 39 15 62 14 13 44 57 67
98 46 84 45 105 -9 190 -16 26 -30 49 -30 51 0 2 15 7 33 11 l32 7 -35 10
c-44 12 -46 15 -54 59 -6 35 -6 36 26 36 22 0 42 -8 61 -25 19 -18 27 -21 27
-11 0 8 -5 20 -12 27 -18 18 12 16 40 -4 17 -12 22 -26 23 -62 l1 -47 14 50
c7 28 14 62 14 78 0 15 18 70 40 123 42 101 48 141 28 177 -18 33 -10 79 17
103 13 12 54 33 92 48 78 30 104 61 128 151 17 67 10 93 -52 187 -54 82 -131
150 -243 213 -47 27 -100 59 -118 72 -39 29 -188 67 -326 83 -94 11 -238 11
-356 0z m553 -399 c6 -6 22 -11 37 -11 31 0 41 -7 60 -45 9 -16 23 -30 31 -30
9 0 28 -8 43 -18 21 -14 31 -16 41 -7 19 16 33 -13 41 -82 5 -41 2 -62 -10
-86 -12 -23 -14 -37 -6 -49 12 -23 40 -93 36 -93 -2 0 -17 5 -35 11 -27 9 -35
8 -51 -6 -22 -20 -26 -45 -9 -62 9 -9 -4 -11 -51 -11 -62 1 -63 2 -93 44 -16
23 -40 48 -53 55 -13 7 -24 16 -24 21 0 13 13 9 40 -12 14 -11 32 -20 41 -20
22 0 43 26 36 44 -7 17 -102 80 -138 91 -13 4 -35 16 -48 26 -13 11 -29 19
-35 19 -6 1 -29 10 -51 21 l-40 20 35 -6 c19 -4 44 -9 55 -12 17 -4 15 -1 -7
21 -29 28 -37 42 -15 30 8 -5 8 -2 -2 9 -7 9 -22 17 -32 17 -11 0 -19 6 -19
14 0 9 -7 12 -20 9 -14 -4 -20 0 -20 10 0 9 -9 19 -20 22 -29 9 -24 25 10 31
16 4 27 10 24 15 -3 5 5 9 18 9 13 1 37 7 53 14 35 15 162 13 178 -3z m-192
-283 c38 -13 82 -39 76 -44 -2 -3 -23 3 -47 11 -23 8 -50 15 -59 14 -9 0 7 -9
35 -18 57 -21 94 -42 94 -54 0 -4 -6 -5 -12 -1 -9 5 -9 3 1 -9 14 -18 36 -13
25 5 -4 7 -2 8 5 4 6 -4 9 -12 5 -17 -8 -13 14 -39 33 -39 12 0 12 3 -1 16
-27 27 -17 26 19 -2 19 -14 35 -31 35 -37 0 -5 -9 -2 -19 7 -11 10 -22 13 -25
8 -3 -6 -1 -12 5 -14 17 -6 -2 -38 -32 -54 -32 -16 -32 -15 -20 -67 5 -20 5
-39 1 -42 -4 -3 -11 -20 -14 -38 -4 -23 -19 -44 -46 -66 -34 -27 -40 -37 -40
-71 0 -51 -35 -76 -112 -79 -10 -1 -18 -8 -18 -17 0 -14 -1 -14 -16 0 -20 20
-45 21 -38 2 4 -11 -5 -17 -31 -22 -20 -3 -39 -4 -42 0 -4 3 7 7 23 7 28 2 28
2 -5 8 -36 6 -56 31 -26 31 15 0 15 2 4 16 -12 14 -14 14 -26 -2 -12 -16 -13
-16 -13 -1 0 9 -4 17 -10 17 -5 0 -10 4 -10 10 0 5 6 7 14 4 21 -8 30 15 14
34 -32 41 -53 102 -29 87 13 -7 26 16 14 24 -7 4 -3 28 9 64 14 43 16 62 8 72
-8 10 -1 14 35 19 29 5 45 12 45 22 0 8 8 14 18 14 14 0 15 -2 2 -10 -9 -6
-10 -10 -3 -10 6 0 20 -3 30 -6 15 -5 15 -4 3 5 -13 9 -12 11 6 11 14 0 24 8
27 21 6 21 6 21 34 2 42 -30 88 -43 129 -36 31 5 35 9 30 29 -4 13 -1 25 7 28
6 3 1 4 -13 4 -14 -1 -58 2 -99 6 -66 8 -72 10 -56 22 10 8 17 14 14 15 -2 0
-12 2 -21 4 -10 2 -18 -2 -18 -8 0 -7 -15 -17 -32 -23 -18 -6 -41 -14 -50 -19
-15 -6 -18 -2 -18 23 0 17 -4 34 -10 37 -5 3 -10 12 -9 18 0 9 2 9 6 0 9 -24
22 -13 29 22 9 49 45 75 104 75 26 0 62 -5 81 -12z m-709 -41 c7 -7 28 -23 46
-36 27 -19 33 -29 30 -54 -3 -34 -20 -45 -37 -25 -25 29 -71 104 -71 116 0 16
15 15 32 -1z m-16 -82 c13 -33 13 -37 -16 -83 -16 -27 -33 -63 -36 -81 -4 -17
-12 -31 -19 -31 -31 0 -34 89 -5 143 11 20 20 45 20 55 0 45 37 43 56 -3z
m504 -1 c0 -8 -5 -12 -10 -9 -6 4 -8 11 -5 16 9 14 15 11 15 -7z m239 -57 c13
-16 5 -27 -21 -27 -18 0 -25 20 -11 33 10 10 19 8 32 -6z m237 -35 c15 -9 28
-52 16 -52 -10 0 -9 -51 2 -69 4 -6 1 -11 -6 -12 -10 0 -10 -2 0 -6 6 -2 12
-14 12 -26 0 -20 0 -20 -15 -1 -8 10 -15 31 -15 45 0 14 -3 29 -6 32 -10 10
-16 97 -7 97 4 0 13 -4 19 -8z m-911 -116 c-14 -59 -23 -77 -39 -83 -25 -8
-49 -5 -57 8 -8 13 1 69 12 69 14 0 20 -18 7 -23 -10 -3 -10 -7 -1 -17 18 -19
62 18 63 52 0 15 -4 30 -10 33 -14 8 -13 38 2 53 10 10 15 9 26 -2 13 -13 12
-25 -3 -90z m1122 72 c23 -19 12 -51 -19 -52 -14 -1 -24 2 -21 8 3 5 0 6 -8 4
-18 -7 -51 10 -44 23 4 5 -1 9 -9 9 -10 0 -13 6 -9 15 4 12 16 14 51 10 25 -3
51 -10 59 -17z m-105 -97 c-1 -7 1 -10 5 -8 5 3 17 -1 28 -9 14 -10 20 -28 22
-69 1 -30 -1 -55 -5 -55 -4 0 -22 9 -40 20 -32 20 -33 22 -31 80 2 39 6 59 13
57 6 -3 10 -10 8 -16z m-55 -23 c-3 -8 -6 -5 -6 6 -1 11 2 17 5 13 3 -3 4 -12
1 -19z m-154 -125 c-7 -2 -21 -2 -30 0 -10 3 -4 5 12 5 17 0 24 -2 18 -5z
m-33 -61 c-15 -5 -41 18 -34 30 3 5 15 1 26 -9 11 -10 15 -19 8 -21z m100 -24
c23 -17 30 -30 30 -55 0 -39 -26 -56 -45 -29 -7 9 -25 19 -41 22 -15 3 -35 9
-43 14 -14 8 -14 9 2 10 9 0 17 5 17 10 0 6 6 10 14 10 8 0 18 9 21 20 8 25 9
25 45 -2z m-209 -72 c-7 -8 -10 -19 -7 -25 3 -5 -3 -7 -14 -4 -30 8 -24 -6 7
-18 19 -7 35 -6 55 2 22 9 31 9 43 -1 22 -19 9 -30 -38 -31 -79 -2 -102 -12
-100 -40 1 -22 -2 -25 -23 -21 -23 4 -35 22 -15 22 5 0 7 8 4 18 -2 10 5 26
16 36 11 10 17 24 14 32 -8 21 17 45 38 39 12 -4 19 -1 19 6 0 7 3 9 6 6 4 -4
1 -13 -5 -21z m212 -61 c29 -12 19 -24 -18 -23 -19 1 -32 5 -29 10 3 4 -6 8
-20 8 -24 0 -33 10 -20 22 5 6 55 -4 87 -17z m-866 -137 c25 -24 57 -55 72
-70 58 -58 172 -136 209 -141 20 -4 55 -16 77 -27 21 -11 51 -20 65 -20 14 0
34 -6 45 -13 17 -13 17 -14 -4 -29 -16 -11 -21 -24 -19 -40 4 -22 5 -22 13 -3
10 21 44 54 58 55 17 0 34 -26 28 -43 -6 -15 -9 -15 -34 -2 -27 14 -27 13 -27
-18 0 -18 -4 -47 -9 -65 -10 -34 -1 -52 43 -77 9 -5 23 -28 31 -50 l15 -40 -6
53 c-6 48 -5 54 14 59 11 2 23 16 27 30 4 16 12 23 22 21 37 -7 43 -129 12
-215 -12 -32 -25 -62 -29 -68 -4 -5 -10 -22 -14 -37 -3 -16 -11 -28 -17 -28
-6 0 -6 6 1 19 13 25 13 71 0 91 -7 11 -10 2 -10 -32 0 -98 -38 -130 -156
-129 -41 0 -83 5 -95 11 -11 7 -23 9 -26 6 -9 -8 37 -24 90 -31 27 -4 47 -8
45 -11 -3 -2 -42 -6 -88 -9 -62 -4 -95 -2 -134 11 -102 33 -274 168 -356 279
-40 54 -81 128 -59 108 7 -7 17 -13 21 -13 14 0 9 27 -7 40 -11 9 -12 16 -5
25 15 18 29 68 40 144 5 35 24 95 43 135 19 39 43 92 52 119 10 26 20 47 23
47 2 0 25 -19 49 -42z m668 -22 c33 -5 45 -11 41 -21 -7 -18 14 -34 55 -41 70
-14 73 -19 36 -72 -18 -26 -38 -59 -44 -74 -15 -32 -55 -60 -87 -60 -32 0
-126 24 -126 33 0 4 -10 10 -22 13 -22 6 -77 80 -89 121 -5 19 1 43 24 93 11
23 49 51 46 35 -4 -23 2 -43 12 -38 6 4 8 13 5 21 -3 8 -1 14 4 14 6 0 10 6
10 14 0 9 12 16 28 18 20 2 31 -3 44 -23 12 -20 28 -28 63 -33z m107 22 c12
-7 29 -19 37 -26 8 -8 22 -11 32 -9 11 3 22 1 25 -4 3 -5 -20 -9 -51 -9 -48 0
-56 2 -53 18 2 9 -3 22 -12 29 -20 16 -6 16 22 1z m-1072 -172 c0 -14 5 -28
11 -32 31 -19 63 -164 36 -164 -18 0 -44 30 -96 113 -42 65 -43 68 -26 87 10
11 31 20 47 20 23 0 28 -4 28 -24z m1141 1 c20 -15 41 -97 41 -154 0 -13 4
-21 8 -18 5 3 6 -4 3 -15 -3 -11 -10 -17 -15 -14 -5 3 -7 8 -5 10 2 3 -22 30
-55 62 l-59 57 28 43 c30 46 31 47 54 29z m-1502 -273 c38 -42 84 -114 78
-120 -2 -3 -28 4 -58 15 -30 11 -76 25 -102 32 -27 7 -51 18 -54 25 -6 17 15
54 31 54 8 0 19 7 26 15 20 24 46 17 79 -21z m99 -404 c13 -11 21 -24 17 -30
-3 -5 -1 -10 5 -10 6 0 13 -8 17 -17 13 -37 45 -73 64 -73 11 0 30 -7 44 -16
18 -12 28 -13 44 -5 42 23 65 14 84 -34 27 -65 34 -213 13 -295 -28 -111 -97
-238 -164 -302 -74 -71 -105 -81 -138 -45 -13 14 -24 33 -24 41 0 8 -7 21 -15
30 -9 8 -16 18 -15 21 1 27 -5 39 -35 66 -19 18 -35 38 -35 44 0 7 -13 18 -30
25 -24 10 -36 10 -59 0 -17 -6 -34 -9 -40 -6 -6 4 -20 2 -31 -4 -28 -15 -62
-3 -55 19 6 21 -25 60 -44 53 -9 -3 -11 1 -7 15 6 18 2 20 -31 19 -32 -1 -41
4 -58 31 -11 18 -26 32 -34 33 -8 0 -4 7 10 19 17 14 21 22 13 32 -24 31 -14
60 32 92 24 17 44 34 44 37 0 12 57 70 68 70 13 0 62 62 62 78 0 7 7 12 16 12
14 0 14 3 4 15 -8 9 -8 15 -2 15 6 0 17 6 24 13 26 25 68 47 90 47 13 1 34 7
48 15 35 20 91 18 118 -5z m-218 -796 c0 -2 -7 -4 -15 -4 -8 0 -15 4 -15 10 0
5 7 7 15 4 8 -4 15 -8 15 -10z m71 -23 c26 -21 28 -17 -44 -88 -28 -29 -133
-93 -152 -93 -12 0 5 71 26 112 13 25 26 38 39 38 11 0 20 6 20 13 0 11 43 32
76 36 7 0 22 -7 35 -18z"/>
<path d="M2222 1635 c0 -16 2 -22 5 -12 2 9 2 23 0 30 -3 6 -5 -1 -5 -18z"/>
<path d="M2864 2759 c-2 -58 -31 -116 -73 -142 l-36 -22 33 -3 c49 -5 58 1 88
60 35 69 40 105 18 129 -25 27 -29 24 -30 -22z m5 -90 c-12 -27 -26 -49 -31
-49 -14 0 -9 14 17 52 14 20 25 45 26 55 0 12 2 14 6 4 3 -7 -5 -35 -18 -62z"/>
</g>
</svg>
