<?xml version="1.0" standalone="no"?>
<!DOCTYPE svg PUBLIC "-//W3C//DTD SVG 20010904//EN"
 "http://www.w3.org/TR/2001/REC-SVG-20010904/DTD/svg10.dtd">
<svg version="1.0" xmlns="http://www.w3.org/2000/svg"
 width="433.000000pt" height="577.000000pt" viewBox="0 0 433.000000 577.000000"
 preserveAspectRatio="xMidYMid meet">

<g transform="translate(0.000000,577.000000) scale(0.100000,-0.100000)"
fill="#000000" stroke="none">
<path d="M2010 3531 c-67 -8 -241 -92 -327 -157 -32 -25 -86 -66 -120 -91 -35
-26 -63 -54 -63 -63 0 -8 -14 -32 -31 -53 -17 -21 -29 -40 -26 -43 3 -3 -4
-15 -15 -27 -34 -37 -87 -128 -82 -142 3 -7 -1 -15 -10 -18 -8 -3 -19 -31 -26
-64 -7 -32 -16 -62 -20 -68 -13 -17 -18 -55 -9 -61 5 -3 9 -13 9 -22 0 -10 16
-53 35 -97 37 -87 51 -150 41 -191 -6 -24 -10 -25 -54 -22 -40 3 -47 0 -44
-14 2 -10 -2 -18 -8 -18 -7 0 -9 -8 -5 -21 5 -15 4 -19 -4 -15 -14 9 -13 -12
3 -87 11 -56 26 -68 26 -20 0 12 4 23 9 23 5 0 3 -25 -5 -56 -13 -46 -13 -68
-3 -132 7 -42 12 -99 11 -126 -2 -47 16 -86 40 -86 5 0 8 60 8 133 -1 72 4
154 10 182 6 27 9 70 6 95 -4 30 -1 53 9 70 9 16 15 20 15 10 5 -65 20 -120
20 -72 0 12 4 22 8 22 5 0 13 15 19 34 l11 35 -38 6 c-37 6 -38 7 -29 38 11
40 23 47 89 47 34 0 50 -4 42 -9 -8 -4 -13 -11 -13 -15 3 -20 0 -26 -9 -21 -6
3 -7 -1 -4 -10 4 -8 2 -21 -4 -28 -15 -18 -25 -157 -12 -157 6 0 8 -5 5 -11
-4 -6 -13 -8 -21 -5 -11 4 -12 1 -5 -13 6 -10 7 -21 4 -25 -21 -20 -10 -43 29
-59 22 -10 39 -20 36 -22 -4 -4 -66 16 -84 27 -19 13 -25 -4 -6 -19 13 -10 13
-13 2 -11 -9 2 -17 -9 -21 -32 -3 -19 -7 -31 -8 -26 0 5 -8 3 -17 -5 -13 -11
-13 -14 -1 -20 11 -7 12 -19 6 -59 -4 -28 -5 -58 -2 -65 3 -8 -2 -17 -10 -21
-8 -3 -18 -16 -21 -28 -12 -47 55 -363 74 -351 4 2 7 -15 8 -38 1 -23 7 -55
12 -72 17 -50 -11 -157 -54 -210 -20 -24 -36 -48 -36 -53 0 -5 -8 -16 -17 -23
-11 -10 -14 -10 -9 -1 4 6 2 12 -3 12 -6 0 -11 -7 -11 -16 0 -8 -4 -13 -9 -10
-5 3 -12 -4 -16 -17 -4 -13 -8 -17 -12 -9 -7 17 -23 5 -16 -13 3 -9 -1 -15
-11 -15 -9 0 -16 -4 -16 -10 0 -5 -12 -10 -26 -10 -14 0 -22 -4 -19 -10 3 -6
-1 -7 -10 -4 -11 5 -13 10 -5 19 5 6 7 15 3 18 -13 13 -46 7 -92 -18 -25 -13
-73 -33 -106 -45 -33 -11 -83 -36 -111 -56 -71 -48 -401 -186 -696 -290 l-168
-59 0 -272 0 -273 1901 0 c1726 0 1901 2 1895 16 -25 64 -160 232 -216 267
-25 16 -97 62 -160 104 -128 83 -335 205 -450 264 -100 52 -244 144 -311 198
-30 24 -68 50 -86 57 -17 8 -34 18 -38 24 -15 24 -22 7 -10 -27 7 -21 15 -99
17 -173 3 -74 3 -125 1 -113 -6 32 -19 28 -27 -7 -9 -46 -52 -131 -87 -170
-17 -19 -26 -26 -20 -14 7 15 6 34 -4 66 -19 66 -36 90 -53 76 -9 -8 -16 -8
-23 -1 -8 8 -7 13 1 18 8 5 6 11 -6 20 -12 8 -15 18 -9 31 4 10 7 25 6 32 -1
7 8 26 20 44 l22 31 -23 17 c-15 11 -19 19 -11 24 18 12 13 25 -14 32 -27 7
-32 19 -12 31 6 4 32 35 57 68 25 33 50 65 56 70 26 25 52 85 59 135 5 40 17
59 33 53 13 -5 12 0 -5 18 -14 16 -19 29 -13 35 5 5 5 26 -1 54 -7 32 -7 46 1
48 17 6 -19 42 -42 42 -10 0 -18 5 -18 10 0 6 6 10 14 10 10 0 14 9 13 28 -2
22 -7 27 -27 27 -22 0 -25 4 -23 32 2 17 -2 35 -9 39 -7 5 -8 2 -3 -7 5 -10 2
-9 -9 2 -12 11 -15 24 -11 42 4 15 11 24 16 21 5 -3 9 2 9 11 0 8 -7 18 -16
22 -13 5 -12 9 6 25 21 20 22 20 41 -1 11 -12 32 -21 48 -21 24 0 28 3 24 20
-6 22 7 26 25 8 14 -14 17 -11 26 22 5 15 4 20 -1 13 -14 -20 -45 23 -38 50 5
18 4 19 -5 7 -9 -12 -10 -10 -6 13 4 15 2 27 -4 27 -18 0 -11 29 9 40 26 13
31 13 25 -4 -3 -8 -1 -17 5 -21 7 -3 12 3 13 17 0 13 2 29 2 37 1 8 7 16 14
19 6 2 12 12 12 23 0 10 6 20 13 20 6 1 -4 5 -23 10 -19 4 -51 12 -70 17 -34
10 -34 10 19 11 51 1 53 2 47 25 -3 14 -2 28 4 31 5 3 10 17 10 31 0 14 6 24
14 24 7 0 19 7 26 15 7 8 21 15 31 15 11 0 19 5 19 10 0 6 7 10 15 10 8 0 15
6 15 14 0 8 9 18 20 21 11 3 20 14 20 24 0 19 -59 81 -78 81 -6 0 -18 13 -27
29 -14 28 -14 30 6 36 17 6 19 9 8 17 -11 8 -10 8 4 4 10 -3 29 -6 41 -6 13 0
33 -9 46 -20 24 -21 50 -27 50 -11 0 6 12 6 32 0 46 -13 47 -12 11 11 -22 13
-33 27 -33 43 0 29 -62 91 -113 112 -25 10 -69 16 -125 16 -154 0 -163 2 -178
32 -8 15 -23 27 -33 27 -19 0 -31 25 -31 66 0 14 -12 27 -40 40 -22 10 -40 25
-40 32 0 6 -7 12 -16 12 -9 0 -14 -6 -12 -12 3 -7 -5 -20 -16 -29 -17 -14 -18
-19 -7 -33 16 -19 7 -34 -11 -18 -7 5 -24 12 -38 14 -36 5 -32 32 5 36 29 3
31 5 27 36 -3 27 -8 33 -23 29 -12 -3 -21 1 -25 11 -9 23 0 30 24 17 17 -9 19
-7 14 14 -2 15 0 25 7 25 6 0 18 18 27 40 18 44 39 44 29 -1 -5 -22 -1 -34 19
-54 34 -34 39 -32 22 10 -18 42 -15 43 20 10 16 -15 24 -31 20 -40 -3 -8 -1
-15 4 -15 6 0 10 11 10 24 0 13 6 26 13 29 8 3 5 11 -10 24 -13 11 -23 23 -23
27 0 3 10 6 23 6 21 1 22 1 3 15 -19 15 -35 62 -17 51 5 -4 12 0 15 6 3 7 4 1
1 -14 -4 -23 -2 -28 14 -28 27 0 35 17 14 29 -16 9 -16 12 -3 21 13 9 13 11 0
20 -8 5 -24 7 -35 4 -16 -5 -17 -4 -8 6 16 18 101 20 114 3 6 -7 23 -13 38
-12 14 0 20 3 14 6 -7 2 -13 9 -13 15 0 7 5 6 14 -2 8 -6 12 -18 9 -26 -3 -8
1 -14 10 -14 8 0 18 6 20 13 4 10 6 10 6 0 1 -7 7 -13 14 -13 18 0 59 -48 52
-61 -4 -5 1 -12 9 -15 9 -3 16 -12 16 -20 0 -8 7 -14 15 -14 9 0 18 -7 21 -15
4 -8 10 -15 15 -15 6 0 19 -9 31 -20 12 -10 24 -17 28 -15 21 13 51 -36 74
-121 13 -49 31 -104 39 -121 9 -16 19 -65 23 -109 l7 -79 17 50 c23 65 64 151
82 173 38 44 51 219 23 300 -8 21 -9 38 -4 40 5 2 9 15 9 28 0 13 5 24 10 24
6 0 5 13 -4 33 -9 22 -10 40 -5 50 6 10 5 18 -1 22 -11 6 -40 71 -39 83 4 27
-5 45 -31 61 -16 10 -27 20 -25 23 9 9 -112 128 -128 128 -9 0 -17 -5 -19 -11
-2 -7 -13 -9 -26 -5 -12 4 -20 11 -17 15 2 5 -6 6 -19 4 -12 -3 -38 5 -57 16
-33 20 -69 30 -39 11 8 -5 10 -10 4 -10 -6 0 -17 7 -24 15 -7 8 -19 15 -27 15
-8 0 -21 7 -29 15 -18 18 -88 22 -187 11 -20 -3 -27 0 -23 10 3 7 -3 18 -12
23 -9 6 -12 11 -6 11 7 0 15 7 18 16 5 13 0 14 -27 9 -22 -4 -28 -3 -18 3 10
7 4 10 -22 9 -21 0 -37 -5 -37 -9 0 -4 -7 -8 -15 -8 -8 0 -15 -4 -15 -9 0 -12
-39 -21 -46 -10 -3 5 -10 7 -15 4 -5 -3 -6 1 -3 9 4 11 0 13 -18 9 -18 -4 -20
-3 -8 6 13 10 13 11 0 12 -8 0 -2 6 14 13 18 8 24 16 17 20 -6 4 -9 12 -6 17
7 10 -8 10 -95 0z m50 -67 c0 -2 -7 -4 -15 -4 -8 0 -15 4 -15 10 0 5 7 7 15 4
8 -4 15 -8 15 -10z m207 -40 c-3 -3 -12 -4 -19 -1 -8 3 -5 6 6 6 11 1 17 -2
13 -5z m-6 -57 c-10 -9 -11 -8 -5 6 3 10 9 15 12 12 3 -3 0 -11 -7 -18z m522
-174 c-7 -2 -19 -2 -25 0 -7 3 -2 5 12 5 14 0 19 -2 13 -5z m-496 -305 c-3 -8
-6 -5 -6 6 -1 11 2 17 5 13 3 -3 4 -12 1 -19z m-27 -39 c0 -5 -4 -9 -10 -9 -5
0 -10 7 -10 16 0 8 5 12 10 9 6 -3 10 -10 10 -16z m-220 -179 c0 -5 -5 -10
-11 -10 -5 0 -7 5 -4 10 3 6 8 10 11 10 2 0 4 -4 4 -10z m90 -11 c0 -5 -4 -9
-10 -9 -5 0 -10 7 -10 16 0 8 5 12 10 9 6 -3 10 -10 10 -16z m-130 -54 c0 -17
-2 -18 -15 -4 -9 9 -13 23 -9 33 5 14 9 15 15 4 5 -7 9 -22 9 -33z m267 -27
c-3 -8 -6 -5 -6 6 -1 11 2 17 5 13 3 -3 4 -12 1 -19z m-150 -13 c9 -24 -1 -27
-20 -5 -14 17 -15 20 -2 20 9 0 18 -7 22 -15z m173 -15 c8 -5 11 -10 5 -10 -5
0 -17 5 -25 10 -8 5 -10 10 -5 10 6 0 17 -5 25 -10z m-833 -51 c-6 -10 -15
-19 -19 -19 -3 0 -13 -3 -22 -6 -27 -10 -19 25 9 38 13 6 21 16 18 22 -4 6 1
5 10 -2 13 -11 14 -17 4 -33z m820 -276 c-3 -10 -5 -4 -5 12 0 17 2 24 5 18 2
-7 2 -21 0 -30z m73 -215 c5 -10 10 -23 10 -29 0 -26 -26 12 -44 63 -11 29
-22 58 -26 63 -3 6 -7 28 -8 50 -2 34 2 28 27 -45 17 -47 35 -93 41 -102z
m-135 104 c10 -30 24 -67 31 -81 8 -14 14 -31 14 -37 0 -6 6 -17 14 -23 21
-17 26 -62 10 -92 -12 -24 -12 -28 4 -35 9 -4 20 -7 24 -6 12 3 48 -50 48 -69
0 -9 -3 -25 -6 -34 -6 -14 -10 -13 -29 11 -22 28 -24 28 -69 17 -49 -14 -78
-9 -70 11 3 7 -7 21 -21 32 -14 10 -25 27 -25 37 0 11 -9 21 -20 24 -11 3 -20
14 -20 25 0 15 5 18 19 13 19 -6 19 -5 4 26 -12 25 -14 39 -6 60 7 18 7 31 1
37 -7 7 -3 25 12 54 12 23 27 51 32 61 5 10 6 22 3 26 -3 5 3 7 14 4 12 -3 25
-23 36 -61z m433 -7 c-3 -3 -9 2 -12 12 -6 14 -5 15 5 6 7 -7 10 -15 7 -18z
m-266 -682 c10 -9 18 -26 18 -37 0 -15 -3 -17 -9 -8 -4 8 -11 12 -14 10 -11
-5 -48 32 -42 42 9 15 26 12 47 -7z m-981 -284 c-5 -13 -10 -19 -10 -12 -1 15
10 45 15 40 3 -2 0 -15 -5 -28z m-19 -51 c-7 -7 -12 -8 -12 -2 0 14 12 26 19
19 2 -3 -1 -11 -7 -17z m1175 -680 c-2 -29 -3 -6 -3 52 0 58 1 81 3 53 2 -29
2 -77 0 -105z m-7 -128 c0 -5 -5 -10 -11 -10 -5 0 -7 5 -4 10 3 6 8 10 11 10
2 0 4 -4 4 -10z"/>
<path d="M2188 3533 c7 -3 16 -2 19 1 4 3 -2 6 -13 5 -11 0 -14 -3 -6 -6z"/>
<path d="M2248 3513 c7 -3 16 -2 19 1 4 3 -2 6 -13 5 -11 0 -14 -3 -6 -6z"/>
<path d="M2156 3479 c3 -5 12 -9 21 -9 19 0 9 13 -12 16 -8 1 -13 -2 -9 -7z"/>
<path d="M2380 3480 c15 -10 58 -14 48 -5 -3 3 -18 8 -34 11 -22 3 -25 2 -14
-6z"/>
<path d="M2548 3423 c7 -3 16 -2 19 1 4 3 -2 6 -13 5 -11 0 -14 -3 -6 -6z"/>
<path d="M2595 3420 c11 -5 27 -9 35 -9 9 0 8 4 -5 9 -11 5 -27 9 -35 9 -9 0
-8 -4 5 -9z"/>
<path d="M2390 2899 c0 -5 5 -7 10 -4 6 3 10 8 10 11 0 2 -4 4 -10 4 -5 0 -10
-5 -10 -11z"/>
<path d="M2400 2780 c0 -5 5 -10 10 -10 6 0 10 5 10 10 0 6 -4 10 -10 10 -5 0
-10 -4 -10 -10z"/>
<path d="M2355 2720 c4 -6 11 -8 16 -5 14 9 11 15 -7 15 -8 0 -12 -5 -9 -10z"/>
<path d="M2287 2684 c-9 -10 2 -24 19 -24 8 0 14 7 14 15 0 15 -21 21 -33 9z"/>
<path d="M2355 2560 c3 -5 8 -10 11 -10 2 0 4 5 4 10 0 6 -5 10 -11 10 -5 0
-7 -4 -4 -10z"/>
<path d="M2895 2192 c11 -2 25 -7 30 -11 6 -4 24 -4 40 0 37 8 33 10 -35 13
-30 2 -46 1 -35 -2z"/>
<path d="M1361 2164 c0 -11 3 -14 6 -6 3 7 2 16 -1 19 -3 4 -6 -2 -5 -13z"/>
<path d="M2571 1850 c-9 -5 -7 -9 8 -13 12 -3 23 -2 26 3 7 11 -19 20 -34 10z"/>
<path d="M2400 1610 c0 -5 5 -10 10 -10 6 0 10 5 10 10 0 6 -4 10 -10 10 -5 0
-10 -4 -10 -10z"/>
</g>
</svg>
